# xmcd
#
# Track frame offsets:
#	150
#	16740
#	34797
#	52258
#	72042
#	88246
#	107533
#	126721
#	143845
#	162474
#	178382
#	193671
#	207669
#	226258
#
# Disc length: 3282 seconds
#
# Revision: 1
# Processed by: cddbd v1.5.2PL0 Copyright (c) Steve Scherf et al.
# Submitted via: audiograbber 1.83.01
#
DISCID=d30cd00e
DTITLE=мъЙОР оИЙОМОЛЭПОУКОР - хА ЕъЛАИ ЕДЧ
DYEAR=1900
DGENRE=
TTITLE0=йаи ти ециме
TTITLE1=ха еилаи еды
TTITLE2=йакг йаядиа
TTITLE3=ле пеияафеи
TTITLE4=деутеяокепта ха леимы
TTITLE5=гяхе г ыяа а жуцы
TTITLE6=поиа фыг ма фгсы
TTITLE7=поу ха ле пас
TTITLE8=ьане ле
TTITLE9=ока пкгяымомтаи еды
TTITLE10=вамоласте
TTITLE11=енаятглемос
TTITLE12=латыса циа сема
TTITLE13=поутама стгм ьувг
EXTD=
EXTT0=
EXTT1=
EXTT2=
EXTT3=
EXTT4=
EXTT5=
EXTT6=
EXTT7=
EXTT8=
EXTT9=
EXTT10=
EXTT11=
EXTT12=
EXTT13=
PLAYORDER=
